<?xml version="1.0" encoding="utf-8"?>
<!-- Generator: Adobe Illustrator 28.0.0, SVG Export Plug-In . SVG Version: 6.00 Build 0)  -->
<svg version="1.1" id="Слой_1" xmlns="http://www.w3.org/2000/svg" xmlns:xlink="http://www.w3.org/1999/xlink" x="0px" y="0px"
	 viewBox="0 0 22 22" style="enable-background:new 0 0 22 22;" xml:space="preserve">
<style type="text/css">
	.st0{fill:#E05124;}
</style>
<g>
	<path class="st0" d="M11,0C4.93,0,0,4.93,0,11s4.93,11,11,11s11-4.93,11-11S17.07,0,11,0z M15.05,13.75c0.36,0.36,0.36,0.94,0,1.3
		c-0.18,0.18-0.41,0.27-0.65,0.27c-0.23,0-0.47-0.09-0.65-0.27L11,12.3l-2.75,2.75c-0.18,0.18-0.41,0.27-0.65,0.27
		c-0.23,0-0.47-0.09-0.65-0.27c-0.36-0.36-0.36-0.94,0-1.3L9.7,11L6.95,8.25c-0.36-0.36-0.36-0.94,0-1.3c0.36-0.36,0.94-0.36,1.3,0
		L11,9.7l2.75-2.75c0.36-0.36,0.94-0.36,1.3,0c0.36,0.36,0.36,0.94,0,1.3L12.3,11L15.05,13.75z"/>
</g>
</svg>
